<svg viewBox="0 0 300 300.621" xmlns="http://www.w3.org/2000/svg"><path d="M175 237.62v-15.874a100 100 0 1 0-50 0v15.875H25v37.5h250v-37.5zm-98.5-97.874a73.75 73.75 0 0 1 4.25-43.375 75 75 0 1 1 98 98 73.75 73.75 0 0 1-43.375 4.25A75 75 0 0 1 76.5 139.747zm61 36a17.625 17.625 0 0 1-6.25-13.125C133.375 138.87 150 68.87 150 68.87s16.625 70 18.75 93.75a17.375 17.375 0 0 1-5.625 13.126 18.125 18.125 0 0 1-25.625 0zm-50-50.625H100v12.5H87.5zm112.5 0h12.5v12.5H200zm0-25h-12.5v-12.5H200zm-100-12.5h12.5v12.5H100zm37.5-12.5H125v-12.5h12.5zm37.5 0h-12.5v-12.5H175z"/></svg>