<svg height="56" viewBox="0 0 56 56" width="56" xmlns="http://www.w3.org/2000/svg"><path d="m30.0391 4.6094c0-1.1016-.9375-2.0391-2.039-2.0391-1.1016 0-2.0391.9375-2.0391 2.0391v4.9218c0 1.1016.9375 2.0391 2.0391 2.0391 1.1015 0 2.039-.9375 2.039-2.0391zm9.5391 8.9296c-.7735.7969-.7735 2.1094 0 2.8829.7969.7968 2.086.8203 2.9062 0l3.4922-3.4922c.7971-.7969.7971-2.1094 0-2.9063-.7734-.7734-2.0859-.7734-2.8828 0zm-26.0625 2.8829c.7734.7968 2.0859.7968 2.8828 0 .7735-.75.7735-2.1094.0235-2.8829l-3.4922-3.5156c-.75-.75-2.086-.7734-2.8829 0-.7734.7734-.7734 2.1094-.0234 2.8829zm14.4844-.3751c-6.5391 0-11.9532 5.4141-11.9532 11.9532 0 6.539 5.4141 11.9766 11.9532 11.9766 6.5156 0 11.9297-5.4376 11.9297-11.9766 0-6.5391-5.4141-11.9532-11.9297-11.9532zm23.3202 13.9922c1.1016 0 2.039-.9374 2.039-2.039s-.9374-2.0391-2.039-2.0391h-4.8983c-1.1016 0-2.0391.9375-2.0391 2.0391s.9375 2.039 2.0391 2.039zm-46.6405-4.0781c-1.1016 0-2.0391.9375-2.0391 2.0391s.9375 2.039 2.0391 2.039h4.8984c1.1016 0 2.0391-.9374 2.0391-2.039s-.9375-2.0391-2.0391-2.0391zm37.7812 13.6407c-.7968-.7735-2.0859-.7735-2.8828 0-.7735.7734-.7735 2.0859 0 2.8828l3.5156 3.5156c.7969.7734 2.1094.75 2.8828-.0234.7971-.7735.7971-2.086 0-2.8829zm-32.4375 3.4687c-.7969.7734-.7969 2.1094-.0234 2.8828.7734.7735 2.1093.7969 2.9062.0235l3.4922-3.4922c.7735-.7735.7735-2.086.0235-2.8828-.7735-.7735-2.1094-.7735-2.9063 0zm20.0156 3.3984c0-1.1015-.9375-2.039-2.039-2.039-1.1016 0-2.0391.9375-2.0391 2.039v4.9219c0 1.1016.9375 2.0391 2.0391 2.0391 1.1015 0 2.039-.9375 2.039-2.0391z"/></svg>