<svg height="56" viewBox="0 0 56 56" width="56" xmlns="http://www.w3.org/2000/svg"><path d="m28.0001 10c1.5 0 2.7422-1.2422 2.7422-2.7656 0-1.5-1.2422-2.7422-2.7422-2.7422-1.5234 0-2.7422 1.2422-2.7422 2.7422 0 1.5234 1.2188 2.7656 2.7422 2.7656zm12.75 5.2734c1.0547 1.0547 2.7891 1.0547 3.8672 0 1.0781-1.0781 1.0781-2.8125 0-3.8906s-2.8125-1.0781-3.8672 0c-1.0781 1.0781-1.0781 2.8125 0 3.8906zm-29.3906.0234c1.0547 1.0548 2.789 1.0548 3.8672 0 1.1015-1.1015 1.1015-2.8124 0-3.8905-1.0782-1.0782-2.8125-1.0782-3.8672 0-1.0781 1.0781-1.0781 2.789 0 3.8905zm16.6406 24.7032c6.5157 0 11.9297-5.4141 11.9297-11.9531 0-6.5157-5.414-11.9297-11.9297-11.9297-6.5391 0-11.9531 5.414-11.9531 11.9297 0 6.539 5.414 11.9531 11.9531 11.9531zm-20.7656-9.211c1.5 0 2.7422-1.2421 2.7422-2.7656 0-1.5-1.2422-2.7422-2.7422-2.7422-1.5235 0-2.7422 1.2422-2.7422 2.7422 0 1.5235 1.2187 2.7656 2.7422 2.7656zm41.5314.1641c1.5 0 2.7418-1.2422 2.7418-2.7656 0-1.5-1.2418-2.7422-2.7418-2.7422-1.5236 0-2.7423 1.2422-2.7423 2.7422 0 1.5234 1.2187 2.7656 2.7423 2.7656zm-37.383 13.6875c1.0547 1.0781 2.7891 1.0781 3.8672 0s1.0781-2.8125 0-3.8906c-1.0781-1.0547-2.8125-1.0547-3.8672 0-1.1015 1.0781-1.1015 2.8125 0 3.8906zm29.2266.1172c1.0781 1.0781 2.789 1.0781 3.8906 0 1.0547-1.0547 1.0547-2.7891 0-3.8672-1.1016-1.0781-2.8125-1.0781-3.8906 0s-1.0781 2.8125 0 3.8672zm-12.6094 6.75c1.5 0 2.7422-1.2188 2.7422-2.7422 0-1.5-1.2422-2.7422-2.7422-2.7422-1.5234 0-2.7422 1.2422-2.7422 2.7422 0 1.5234 1.2188 2.7422 2.7422 2.7422z"/></svg>