<svg fill="none" height="64" viewBox="0 0 64 64" width="64" xmlns="http://www.w3.org/2000/svg"><path d="m25 49c0 2.762 2.238 5 5 5s5-2.238 5-5-2.238-5-5-5h-23m44-7c0 2.762 2.238 5 5 5s5-2.238 5-5-2.238-5-5-5h-53m4-12h26.123c1.657 0 2.877-1.344 2.877-3s-1.22-3-2.877-3c-.83 0-1.58.336-2.123.88m8.877 28.24c.543.544 1.293.88 2.123.88 1.657 0 3-1.344 3-3s-1.343-3-3-3h-37m36-20c0-4.418 3.582-8 8-8 3.866 0 8 3.582 8 8s-4.134 8-8 8h-44" stroke="#12131a" stroke-linecap="round" stroke-linejoin="round" stroke-width="2"/></svg>